<?xml version="1.0" encoding="utf-8"?>
<!-- Generator: Adobe Illustrator 27.5.0, SVG Export Plug-In . SVG Version: 6.00 Build 0)  -->
<svg version="1.1" id="Layer_1" xmlns="http://www.w3.org/2000/svg" xmlns:xlink="http://www.w3.org/1999/xlink" x="0px" y="0px"
	 viewBox="0 0 3915.328 2000" style="enable-background:new 0 0 3915.328 2000;" xml:space="preserve">
<g>
	
		<rect y="0.001" transform="matrix(-1 -1.224647e-16 1.224647e-16 -1 3915.3281 2000.0005)" style="fill:#FFFFFF;" width="3915.328" height="2000"/>
	<path style="fill:#EAFCFC;" d="M3535.008,1832.332l-3137.323-3.402c-228.539-116.813-328.086-631.026-17.948-819.896
		c280.381-170.749,102.979-276.196,293.481-371.669c296.999-148.845,455.62-18.728,561.395-140.484
		c195.227-224.725,676.078-368.15,1405.682-308.167c1304.884,107.281,1044.359,875.41,1010.005,945.111
		c-29.923,60.707-160.705,144.989,49.036,342.984C3911.867,1677.439,3544.492,1828.762,3535.008,1832.332z"/>
	<g>
		<g>
			<path style="fill:#ADCAF6;" d="M1343.489,523.03v164.443c0,14.586,11.824,26.411,26.411,26.411h292.901l81.369,52.491
				l-24.836-52.628l34.177,0.137l0,0c14.585,0,26.411-11.824,26.411-26.411V523.03c0-14.584-11.825-26.41-26.411-26.41H1369.9
				C1355.313,496.62,1343.489,508.446,1343.489,523.03z"/>
		</g>
		<g>
			<path style="fill:#FFFFFF;" d="M1735.047,633.021h-228.519c-4.578,0-8.29,3.711-8.29,8.29l0,0c0,4.578,3.712,8.29,8.29,8.29
				h228.518c4.578,0,8.29-3.711,8.29-8.29l0,0C1743.337,636.732,1739.625,633.021,1735.047,633.021z"/>
			<path style="fill:#FFFFFF;" d="M1559.446,589.271h-171.083c-4.578,0-8.29,3.711-8.29,8.289v0.001c0,4.578,3.711,8.29,8.29,8.29
				h171.083c4.579,0,8.29-3.712,8.29-8.291l0,0C1567.735,592.983,1564.024,589.271,1559.446,589.271z"/>
			<path style="fill:#FFFFFF;" d="M1735.047,589.271h-131.572c-4.578,0-8.29,3.711-8.29,8.289v0.001c0,4.579,3.712,8.29,8.29,8.29
				h131.572c4.579,0,8.29-3.712,8.29-8.29v-0.001C1743.337,592.983,1739.625,589.271,1735.047,589.271z"/>
			<path style="fill:#FFFFFF;" d="M1735.047,545.521h-346.684c-4.579,0-8.29,3.712-8.29,8.29l0,0c0,4.579,3.711,8.29,8.29,8.29
				h346.684c4.578,0,8.29-3.711,8.29-8.289v-0.001C1743.337,549.233,1739.625,545.521,1735.047,545.521z"/>
		</g>
	</g>
	<path style="fill:#5184CE;" d="M280.134,1844.149h3398.676c4.954,0,8.971-4.017,8.971-8.972l0,0c0-4.954-4.016-8.971-8.971-8.971
		H280.133c-4.955,0-8.971,4.017-8.971,8.971l0,0C271.163,1840.133,275.179,1844.149,280.134,1844.149z"/>
	<g>
		
			<rect x="409.915" y="1575.263" transform="matrix(0.9825 0.1862 -0.1862 0.9825 324.4448 -47.5838)" style="fill:#184655;" width="11.159" height="255.704"/>
		<polygon style="fill:#184655;" points="905.01,1829.722 918.197,1829.722 869.052,1575.224 858.088,1577.302 		"/>
		<polygon style="fill:#184655;" points="520.014,1829.722 533.202,1829.722 484.057,1575.224 473.093,1577.302 		"/>
		<polygon style="fill:#184655;" points="784.853,1829.722 774.146,1829.85 821.263,1576.366 832.227,1578.444 		"/>
		<path style="fill:#86B1F2;" d="M595.087,1023.69c-58.536,6.268-134.29,12.882-210.339,141.936
			c-83.118,141.05-39.364,351.743,26.239,410.292s279.863,130.842,459.976,22.615c0,0,108.754-65.587,52.94-174.438
			c-85.891-167.508-73.754-202.439-112.157-268.084C773.342,1090.365,719.342,1010.382,595.087,1023.69z"/>
		<path style="fill:#6394DB;" d="M384.749,1165.626c51.907-88.085,103.673-119.123,149.923-131.95
			c-17.89,18.514-36.025,42.33-54.179,73.136c-83.117,141.05-39.364,351.743,26.239,410.292
			c58.177,51.922,233.263,114.632,397.768,52.687c-16.913,18.717-33.537,28.743-33.537,28.743
			c-180.113,108.227-394.374,35.934-459.976-22.615S301.631,1306.676,384.749,1165.626z"/>
		<polygon style="fill:#F79C8D;" points="783.023,1238.078 798.068,1283.215 752.215,1265.18 		"/>
		<path style="fill:#0F2E35;" d="M735.753,1103.758c3.057,0.126,11.433,2.92,23.682,25.99
			c15.642,29.462,38.504,118.461,38.504,118.461l-68.242,25.328l-8.767-18.576l-14.439-143.013
			C706.491,1111.948,734.906,1103.723,735.753,1103.758z"/>
		<path style="fill:#184655;" d="M645.544,1090.93c19.514,0.025,67.797,5.7,90.208,12.835c0,0,16.463,141.019-14.822,248.175
			c-7.003,23.986,5.792,99.435,5.792,99.435l-202.21-2.659c0,0,23.956-182.399,14.931-211.86
			c-9.024-29.462-9.239-132.141-9.239-132.141s1.385-0.216,45.431-7.803C596.18,1093.371,624.709,1090.901,645.544,1090.93z"/>
		<path style="fill:#F7A491;" d="M615.537,1720.257c0,0,4.474,51.457,12.699,65.706c8.225,14.25-0.433,38.474-0.866,41.799
			c-0.433,3.325-17.316,8.075-44.155,5.225c-26.84-2.85-26.407-9.024-24.242-18.999c2.164-9.975,16.45-22.8,17.316-32.299
			c0.866-9.5-8.225-43.699-8.225-43.699L615.537,1720.257z"/>
		<path style="fill:#E5B05C;" d="M703.908,1408.902c0,0,139.585-7.725,170.756,11.09c31.17,18.813-5.637,57.446-5.637,57.446
			s-113.638,49.24-303.885,60.183c-45.051,2.591-48.935-117.069-40.51-126.972C533.057,1400.748,703.908,1408.902,703.908,1408.902z
			"/>
		<path style="fill:#184655;" d="M579.866,1836.98c-27.638-2.934-24.22-16.466-21.991-26.737c1.396-6.432,9.324-14.013,14.05-21.185
			c2.471,1.961,6.489,5.424,18.491,8.957c12.464,3.669,29.549-3.592,40.436-8.141c3.88,14.393,4.057,32.746,3.695,35.53
			C634.101,1828.829,607.504,1839.916,579.866,1836.98z"/>
		<path style="fill:#F7CC7F;" d="M601.566,1508.424c5.577,42.058,33.19,251.426,33.19,251.426l-64.069,7.916
			c0,0-78.787-273.274-74.747-315.073c4.04-41.798,33.532-45.315,33.532-45.315S586.806,1397.093,601.566,1508.424z"/>
		<path style="fill:#F7A491;" d="M528.003,1120.388c18.907-7.068,28.155,162.704,30.704,232.583
			c33.481,3.21,91.838,0.024,106.368-1.063c6.834-0.511,22.591-6.263,29.388-7.15c6.965-0.909,13.278-1.382,16.702-0.788
			c1.257,0.218,36.155,14.441,39.141,17.561c3.703,3.868,13.711,13.625,12.021,17.844c-1.689,4.221-19.25-11.756-19.25-11.756
			l-8.581-4.799c10.684,10.402,31.062,24.101,28.127,29.089c-2.863,4.865-21.245-9.036-34.346-18.512
			c11.236,10.116,25.197,28.217,21.981,31.038c-2.891,2.536-18.77-18.42-35.741-24.455c-6.289-2.236-12.558,3.957-17.504,4.705
			c-3.636,0.551-9.25,1.72-12.816,0.713l-18.375-5.194c-6.26,0.564-6.417,4.255-12.737,5.596
			c-7.339,1.556-19.378,3.194-28.724,5.471c-53.813,13.104-71.763,19.188-88.239,19.179
			C486.215,1410.418,483.32,1137.093,528.003,1120.388z"/>
		<path style="fill:#184655;" d="M492.123,1279.774c-3.541-71.577-3.023-159.801,37.238-174.853
			c15.886-5.939,43.891,29.771,38.854,176.307C546.722,1282.997,515.167,1284.421,492.123,1279.774z"/>
		<path style="fill:#F7A491;" d="M809.332,1757.126c0,0-5.59,17.863,4.42,29.676c10.01,11.813,51.606,23.403,57.065,29.801
			c5.46,6.398,5.047,11.847,5.047,11.847l-116.745-3.201l1.272-35.14l5.375-25.25L809.332,1757.126z"/>
		<path style="fill:#184655;" d="M821.013,1792.691c0,0-29.998,12.094-44.487,4.934c-14.49-7.16-14.053-9.143-18.246-6.473
			c-4.192,2.67-5.694,38.569-5.694,38.569l131.276,0.885c9.136-0.21,13.754-6.915,6.332-12.655c-5.088-3.936-10.97-6.57-14.313-8.48
			C865.612,1803.602,821.013,1792.691,821.013,1792.691z"/>
		<path style="fill:#F7CC7F;" d="M804.907,1441.877c9.023-18.925,29.545-43.563,65.653-28.725
			c34.439,14.154,43.682,48.938,32.816,84.559c-10.865,35.619-82.398,245.01-84.891,273.799l-57.114,0.378
			c0,0,10.379-165.799,12.926-205.874C776.748,1527.452,789.291,1474.629,804.907,1441.877z"/>
		<path style="fill:#F2E9DA;" d="M897.625,1249.02H706.708c-5.051,0-9.602,3.053-11.518,7.727l-58.785,143.374H531.152
			c-2.943,0-5.329,2.384-5.329,5.325l0,0c0,2.94,2.386,5.325,5.329,5.325h299.561c8.236,0,15.705-4.834,19.077-12.348
			l59.192-131.856C912.679,1258.33,906.654,1249.02,897.625,1249.02z"/>
		<path style="fill:#FFFFFF;" d="M794.835,1332.508c-1.289,6.439-6.907,10.746-12.546,9.619c-5.64-1.128-9.167-7.263-7.877-13.703
			c1.29-6.439,6.907-10.746,12.547-9.619C792.599,1319.933,796.125,1326.068,794.835,1332.508z"/>
		<path style="fill:#F7A491;" d="M622.343,1030.479l-9.341,61.568c0,0,34.113,73.308,54.479,66.95
			c17.087-5.335,6.575-70.199,6.575-70.199s-9.313-34.834-6.52-52.266C670.328,1019.102,622.343,1030.479,622.343,1030.479z"/>
		<path style="opacity:0.2;fill:#F47458;" d="M667.535,1036.533c2.793-17.431-45.191-6.054-45.191-6.054l-0.775,5.106
			c1.404,3.416,3.12,6.34,5.203,8.581c10.719,11.535,27.472,18.463,41.957,18.987
			C667.28,1053.755,666.389,1043.682,667.535,1036.533z"/>
		<g>
			<path style="fill:#F7A491;" d="M614.47,943.378c-1.356-0.493-10.871,70.122,7.185,89.551
				c18.056,19.43,53.234,25.789,65.853,10.486c13.957-16.927,13.256-92.82-14.816-112.808
				C644.62,910.621,614.47,943.378,614.47,943.378z"/>
			<path style="fill:#184655;" d="M662.005,892.834c-21.698,4.424-35.753,17.685-40.916,23.336
				c-9.852,1.163-23.243,6.608-37.071,29.504c-17.003,28.151-4.446,59.341,15.346,74.644c19.793,15.304,19.518,32.979,19.518,32.979
				l3.129-9.143c2.309-6.927,3.252-14.271,2.479-21.536c-0.463-4.358-1.397-9.072-3.201-12.947
				c-4.761-10.22,10.226-17.01,14.428-25.512c3.235-6.547,3.393-21.525,8.49-32.347l6.088-8.262c0,0,14.045-10.929,27.787-7.845
				C691.822,938.789,689.845,887.157,662.005,892.834z"/>
			<path style="fill:#F7A491;" d="M634.792,996.725c0.143,8.615-3.773,15.668-8.748,15.754c-4.975,0.085-9.123-6.83-9.267-15.446
				c-0.143-8.616,3.773-15.668,8.748-15.753C630.5,981.194,634.649,988.109,634.792,996.725z"/>
		</g>
		<path style="fill:#FFFFFF;" d="M659.169,1020.607l27.216-1.409c0,0-0.092,10.369-12.042,11.335
			C659.77,1031.71,659.169,1020.607,659.169,1020.607z"/>
	</g>
	<g>
		<rect x="2538.949" y="666.171" style="fill:#184655;" width="12.693" height="1160.983"/>
		<g>
			
				<rect x="2528.067" y="1277.09" transform="matrix(-1 -1.224647e-16 1.224647e-16 -1 5296.0137 2742.6182)" style="fill:#ED9B8E;" width="239.879" height="188.438"/>
			
				<rect x="2683.081" y="1277.09" transform="matrix(-1 -1.224647e-16 1.224647e-16 -1 5451.0273 2742.6182)" style="fill:#F47458;" width="84.865" height="188.438"/>
			
				<rect x="2582.43" y="1277.09" transform="matrix(-1 -1.224647e-16 1.224647e-16 -1 5216.1006 2579.2607)" style="fill:#EFEFB4;" width="51.241" height="25.081"/>
		</g>
		<g>
			
				<rect x="2716.768" y="1277.09" transform="matrix(-1 -1.224647e-16 1.224647e-16 -1 5673.4141 2742.6182)" style="fill:#ED9B8E;" width="239.879" height="188.438"/>
			
				<rect x="2871.781" y="1277.09" transform="matrix(-1 -1.224647e-16 1.224647e-16 -1 5828.4277 2742.6182)" style="fill:#F47458;" width="84.865" height="188.438"/>
			
				<rect x="2771.13" y="1277.09" transform="matrix(-1 -1.224647e-16 1.224647e-16 -1 5593.5 2579.2607)" style="fill:#EFEFB4;" width="51.24" height="25.081"/>
		</g>
		<g>
			
				<rect x="2586.283" y="1088.65" transform="matrix(-1 -1.224647e-16 1.224647e-16 -1 5451.0283 2365.7402)" style="fill:#F7CC7F;" width="278.462" height="188.439"/>
			
				<rect x="2766.229" y="1088.65" transform="matrix(-1 -1.224647e-16 1.224647e-16 -1 5630.9746 2365.7402)" style="fill:#F47458;" width="98.516" height="188.439"/>
			
				<rect x="2649.389" y="1088.65" transform="matrix(-1 -1.224647e-16 1.224647e-16 -1 5358.2598 2202.3828)" style="fill:#EFEFB4;" width="59.482" height="25.082"/>
		</g>
		<g>
			
				<rect x="2906.659" y="970.687" transform="matrix(-1 -1.224647e-16 1.224647e-16 -1 6413.5566 2437.0146)" style="fill:#F7CC7F;" width="600.238" height="495.642"/>
			
				<rect x="3196.273" y="970.687" transform="matrix(-1 -1.224647e-16 1.224647e-16 -1 6404.8086 2437.0146)" style="fill:#AA6D66;" width="12.262" height="495.642"/>
			
				<rect x="3041.87" y="970.687" transform="matrix(-1 -1.224647e-16 1.224647e-16 -1 6096.002 2437.0146)" style="fill:#AA6D66;" width="12.262" height="495.642"/>
			
				<rect x="3201.847" y="841.533" transform="matrix(-1.836970e-16 1 -1 -1.836970e-16 4348.4307 -2065.126)" style="fill:#AA6D66;" width="9.863" height="600.238"/>
			
				<rect x="3201.847" y="1011.269" transform="matrix(-1.836970e-16 1 -1 -1.836970e-16 4518.166 -1895.3906)" style="fill:#AA6D66;" width="9.863" height="600.238"/>
			
				<rect x="3345.455" y="970.687" transform="matrix(-1 -1.224647e-16 1.224647e-16 -1 6852.3525 2437.0146)" style="opacity:0.6;fill:#ED9B8E;" width="161.442" height="495.642"/>
			
				<rect x="3248.215" y="970.687" transform="matrix(-1 -1.224647e-16 1.224647e-16 -1 6553.9893 1954.7744)" style="fill:#EFEFB4;" width="57.56" height="13.401"/>
			
				<rect x="3090.178" y="970.687" transform="matrix(-1 -1.224647e-16 1.224647e-16 -1 6237.916 1954.7744)" style="fill:#EFEFB4;" width="57.561" height="13.401"/>
			
				<rect x="2936.91" y="970.687" transform="matrix(-1 -1.224647e-16 1.224647e-16 -1 5931.3799 1954.7744)" style="fill:#EFEFB4;" width="57.56" height="13.401"/>
			
				<rect x="3248.215" y="1146.584" transform="matrix(-1 -1.224647e-16 1.224647e-16 -1 6553.9893 2306.5693)" style="fill:#EFEFB4;" width="57.56" height="13.401"/>
			
				<rect x="3090.178" y="1146.584" transform="matrix(-1 -1.224647e-16 1.224647e-16 -1 6237.916 2306.5693)" style="fill:#EFEFB4;" width="57.561" height="13.401"/>
			
				<rect x="2936.91" y="1146.584" transform="matrix(-1 -1.224647e-16 1.224647e-16 -1 5931.3799 2306.5693)" style="fill:#EFEFB4;" width="57.56" height="13.401"/>
			
				<rect x="3248.215" y="1316.319" transform="matrix(-1 -1.224647e-16 1.224647e-16 -1 6553.9893 2646.04)" style="fill:#EFEFB4;" width="57.56" height="13.401"/>
			
				<rect x="3090.178" y="1316.319" transform="matrix(-1 -1.224647e-16 1.224647e-16 -1 6237.916 2646.04)" style="fill:#EFEFB4;" width="57.561" height="13.401"/>
			
				<rect x="2936.91" y="1316.319" transform="matrix(-1 -1.224647e-16 1.224647e-16 -1 5931.3799 2646.04)" style="fill:#EFEFB4;" width="57.56" height="13.401"/>
		</g>
		
			<rect x="2315.624" y="1465.528" transform="matrix(-1 -1.224647e-16 1.224647e-16 -1 5857.9189 2969.5215)" style="fill:#184655;" width="1226.671" height="38.465"/>
		
			<rect x="3320.619" y="1465.528" transform="matrix(-1 -1.224647e-16 1.224647e-16 -1 6862.9141 2969.5215)" style="fill:#3C8F7C;" width="221.676" height="38.465"/>
		<rect x="2317.271" y="666.171" style="fill:#184655;" width="12.695" height="1160.983"/>
		
			<rect x="2317.271" y="666.171" transform="matrix(-1 -1.224647e-16 1.224647e-16 -1 4868.9141 1344.1992)" style="fill:#184655;" width="234.371" height="11.857"/>
		<g>
			
				<rect x="2589.938" y="506.148" transform="matrix(-1 -1.224647e-16 1.224647e-16 -1 5644.2373 1390.3975)" style="fill:#ED9B8E;" width="464.36" height="378.102"/>
			
				<rect x="2938.927" y="506.148" transform="matrix(-1 -1.224647e-16 1.224647e-16 -1 5993.2256 1390.3975)" style="opacity:0.6;fill:#ED9B8E;" width="115.372" height="378.102"/>
			
				<rect x="2733.37" y="506.148" transform="matrix(-1 -1.224647e-16 1.224647e-16 -1 5513.0449 1123.4459)" style="fill:#EFEFB4;" width="46.305" height="111.15"/>
		</g>
		<g>
			
				<rect x="2975.634" y="378.745" transform="matrix(-1 -1.224647e-16 1.224647e-16 -1 6415.6299 1262.9941)" style="fill:#F7CC7F;" width="464.362" height="505.505"/>
			
				<rect x="3324.623" y="378.745" transform="matrix(-1 -1.224647e-16 1.224647e-16 -1 6764.6191 1262.9941)" style="opacity:0.6;fill:#ED9B8E;" width="115.373" height="505.505"/>
			
				<rect x="3119.067" y="378.745" transform="matrix(-1 -1.224647e-16 1.224647e-16 -1 6284.4375 906.0918)" style="fill:#EFEFB4;" width="46.303" height="148.603"/>
		</g>
		<g>
			
				<rect x="2465.556" y="695.811" transform="matrix(-1 -1.224647e-16 1.224647e-16 -1 5170.9893 1580.0601)" style="fill:#F7CC7F;" width="239.878" height="188.439"/>
			
				<rect x="2620.569" y="695.811" transform="matrix(-1 -1.224647e-16 1.224647e-16 -1 5326.0029 1580.0601)" style="fill:#F47458;" width="84.864" height="188.439"/>
			
				<rect x="2519.918" y="695.811" transform="matrix(-1 -1.224647e-16 1.224647e-16 -1 5091.0762 1416.7032)" style="fill:#EFEFB4;" width="51.24" height="25.082"/>
		</g>
		<g>
			
				<rect x="2639.322" y="317.708" transform="matrix(-1 -1.224647e-16 1.224647e-16 -1 5518.5244 823.8565)" style="fill:#FCF0D0;" width="239.88" height="188.439"/>
			
				<rect x="2794.336" y="317.708" transform="matrix(-1 -1.224647e-16 1.224647e-16 -1 5673.5381 823.8565)" style="fill:#F47458;" width="84.866" height="188.439"/>
			
				<rect x="2693.685" y="317.708" transform="matrix(-1 -1.224647e-16 1.224647e-16 -1 5438.6104 660.499)" style="fill:#ED9B8E;" width="51.241" height="25.082"/>
		</g>
		
			<rect x="3314.271" y="666.171" transform="matrix(-1 -1.224647e-16 1.224647e-16 -1 6862.9141 1344.1992)" style="fill:#184655;" width="234.371" height="11.857"/>
		
			<rect x="2315.624" y="872.386" transform="matrix(-1 -1.224647e-16 1.224647e-16 -1 5857.9189 1783.2365)" style="fill:#184655;" width="1226.671" height="38.465"/>
		
			<rect x="3320.619" y="872.386" transform="matrix(-1 -1.224647e-16 1.224647e-16 -1 6862.9141 1783.2365)" style="fill:#3C8F7C;" width="221.676" height="38.465"/>
		<rect x="3535.947" y="666.171" style="fill:#184655;" width="12.695" height="1160.983"/>
		<rect x="3314.271" y="666.171" style="fill:#184655;" width="12.695" height="1160.983"/>
	</g>
	<g>
		<path style="fill:#466EB6;" d="M1310.359,1784.777l-21.392-5.382l156.313-546.563l223.34-123.869
			c4.835-2.682,10.928-0.937,13.61,3.899l0,0c2.681,4.836,0.936,10.928-3.899,13.61l-215.987,119.79l-139.08,504.165
			L1310.359,1784.777z"/>
		<g>
			<path style="fill:#1A1A1A;" d="M1351.313,1753.745c0,39.773-32.232,72.017-71.993,72.017c-39.76,0-71.993-32.243-71.993-72.017
				s32.232-72.018,71.993-72.018C1319.082,1681.728,1351.313,1713.972,1351.313,1753.745z"/>
		</g>
		<path style="fill:#F48C7F;" d="M1877.453,1113.822c11.369-6.279,41.078-117.132,87.726-144.276c0,0,18.539-12.778,43.359,7.608
			c24.412,20.414-78.228,169.795-101.127,182.51c-34.18,18.977-167.104-20.063-197.871-26.738l3.384-22.113
			C1712.923,1110.813,1867.378,1119.388,1877.453,1113.822z"/>
		<path style="fill:#466EB6;" d="M1920.203,1004.832c0,0-40.971,78.232-46.31,91.023c0,0,54.393,33.915,67.257,46.012
			c0,0,19.947-65.255,19.947-68.518C1961.098,1070.086,1920.203,1004.832,1920.203,1004.832z"/>
		<path style="fill:#F48C7F;" d="M1717.686,1115.578l-10.492-1.756l-2.614,2.828l0.041,2.1l7.662,4.944
			c0,0,12.144-4.797,12.135-5.226C1724.409,1118.04,1717.686,1115.578,1717.686,1115.578z"/>
		<path style="fill:#F7A491;" d="M1824.062,1151.655l-10.456-1.96l-2.669,2.775v2.1l7.563,5.094c0,0,12.236-4.556,12.236-4.984
			C1830.736,1154.25,1824.062,1151.655,1824.062,1151.655z"/>
		<polygon style="fill:#466EB6;" points="1812.791,1154.57 1675.017,1107.835 1661.518,1120.066 1802.558,1168.003 		"/>
		<path style="fill:#F48C7F;" d="M2183.574,1751.993c0,0,10.567,10.341,10.808,14.135c0.239,3.796,0.936,44.45-3.378,48.245
			s-16.985,6.485-12.911,10.756c3.079,3.226,26.766,2.536,42.465,1.67c4.582-0.254,10.329-36.922,12.144-42.312
			c2.637-7.827,9.047-25.457,6.65-30.913c-1.168-2.658-6.754-8.122-14.626-13.221c-8.28-5.363-16.202-17.304-16.202-17.304
			L2183.574,1751.993z"/>
		<path style="fill:#F7A491;" d="M2072.698,1776.072c0,0,9.457,26.791,9.468,26.86c0.703,4.245,3.472,14.73,3.472,18.589
			c0,14.496-65.185-12.305-50.575-18.729c1.321-0.582,5.471-5.227,5.905-10.159c0.67-7.602-5.491-17.136-5.491-17.136
			L2072.698,1776.072z"/>
		<g>
			<path style="fill:#50BFA5;" d="M1970.439,1277.194c0,0-4.752,48.028-4.752,48.744c0,77.692-15.357,229.45-12.437,244.056
				c7.124,35.627,83.805,217.369,83.805,217.369l41.443-4.969l-54.005-217.596l19.873-87.585l28.122-173.126L1970.439,1277.194z"/>
			<path style="fill:#96D9C9;" d="M2107.032,1263.479l10.361,101.717l21.275,187.343l81.026,183.099
				c0,0-11.397,26.642-28.211,30.385l-128.96-187.987l-77.691-286.459l0.396-7.527L2107.032,1263.479z"/>
		</g>
		<path style="fill:#13375B;" d="M2224.213,1740.096c0,0-24.354,68.771-33.887,72.091c-2.531,0.881-14.679,3.116-16.97,8.504
			c-0.69,1.624,0,7.043,0,7.043h50.764c0,0,6.421-30.3,8.958-43.613c0,0,13.438-32.528,11.944-35.484
			S2224.213,1740.096,2224.213,1740.096z"/>
		<path style="fill:#13375B;" d="M2089.347,1826.305l-7.466-23.649c0,0-15.677,6.651-23.516,5.544
			c-7.838-1.11-23.142-5.544-23.142-5.544c-31.287,10.328-56.919,15.34-52.257,23.649l0,0H2089.347z"/>
		<path style="fill:#5184CE;" d="M1967.223,1291.475l9.984-84.806c0,0-64.625-124.142-63.629-187.823
			c0.595-28.234,29.215-43.002,32.967-43.81c18.749-4.03,62.717-25.158,94.044-3.663c36.892,25.838,76.526,110.578,72.967,315.835
			C2113.557,1287.208,2006.97,1304.076,1967.223,1291.475z"/>
		<path style="fill:#F7A491;" d="M1967.457,1152.545c11.491-6.055-14.514-151.287,32.659-177.509c0,0,18.787-12.411,43.202,8.46
			c24.005,20.89-13.646,219.068-36.792,231.329c-34.547,18.301-161.316-32.958-191.945-40.237l4.814-27.789
			C1819.395,1146.798,1957.276,1157.91,1967.457,1152.545z"/>
		<path style="fill:#466EB6;" d="M1967.457,1119.029c-1.199-50.369,1.135-126.47,32.659-143.993c0,0,18.787-12.411,43.202,8.46
			c13.97,12.157,23.165,92.657,12.279,155.704C2034.481,1127.472,1992.166,1118.754,1967.457,1119.029z"/>
		<path style="fill:#F7A491;" d="M1823.618,1147.948c0,0-20.784-16.562-27.194-16.562c-6.41,0-15.554,0.639-17.857,2.137
			c-2.11,1.373-15.748,26.439-12.134,30.113c2.198,2.234,13.622-18.235,13.622-18.235s-13.049,21.089-7.21,22.578
			c3.241,0.827,14.765-20.401,14.765-20.401s-9.961,17.567-8.814,18.242c3.116,1.831,9.248-3.507,15.337-9.701
			c3.752-3.817,18.828-1.5,18.828-1.5L1823.618,1147.948z"/>
		<path style="fill:#07345A;" d="M1945.177,814.563c0,0,17.946-18.921,32.379,4.096c0,0,11.119-6.242,18.922,4.877
			c0,0,20.091-6.047,24.967,23.992c0,0,10.339-1.95,11.704,10.338c1.365,12.29-4.877,20.482-4.877,20.482s5.808,4.355,3.17,15.654
			c-2.243,9.607-10.191,11.07-10.191,11.07s-2.146,16.19-9.168,21.065c-7.022,4.877-16.58,2.537-16.58,2.537
			s-2.536,8.777-10.729,7.997c-8.192-0.781-18.336-8.583-27.503-5.071c-9.168,3.511-32.965-0.195-32.965-0.195
			s-26.723-11.899-18.725-39.207c0,0-14.044-12.679-1.756-27.894c0,0-8.973-23.796,8.778-37.841
			C1930.353,812.417,1945.177,814.563,1945.177,814.563z"/>
		<path style="fill:#F7A491;" d="M1948.209,943.018l-3.249,24.1c0,0-7.277,34.721,2.085,41.415
			c9.362,6.693,39.813-42.405,39.813-42.405l-3.216-61.067L1948.209,943.018z"/>
		<path style="fill:#F47458;" d="M1984.681,924.851c-7.732,20.83-26.151,33.634-39.226,38.6l2.754-20.433l35.433-37.959
			L1984.681,924.851z"/>
		<path style="fill:#F7A491;" d="M1962.008,840.902c-18.999-6.54-39.251,6.08-42.15,25.665c-1.26,8.513-2.4,19.217-2.613,30.92
			c-0.512,28.149,14.06,55.544,26.843,55.544c12.782,0,48.108-18.222,49.386-58.184
			C1994.263,870.176,1981.945,847.765,1962.008,840.902z"/>
		<path style="fill:#F7A491;" d="M1984.056,898.008c0,6.209,4.116,11.244,9.193,11.244c5.078,0,9.194-5.034,9.194-11.244
			s-4.116-11.244-9.194-11.244C1988.172,886.765,1984.056,891.799,1984.056,898.008z"/>
		<path style="fill:#07345A;" d="M1906.631,826.896c-13.203,10.459-17.83,26.351-10.334,35.497
			c7.495,9.144,24.275,8.079,37.478-2.381c13.203-10.459,17.83-26.352,10.334-35.497
			C1936.614,815.371,1919.835,816.438,1906.631,826.896z"/>
		<path style="fill:#07345A;" d="M1941.151,835.473c0,4.546,5.488,8.23,12.258,8.23c6.771,0,12.259-3.685,12.259-8.23
			c0-4.545-5.488-8.231-12.259-8.231C1946.639,827.242,1941.151,830.928,1941.151,835.473z"/>
		<path style="fill:#07345A;" d="M1904.674,870.452c0,5.844,4.686,10.581,10.465,10.581c5.779,0,10.464-4.737,10.464-10.581
			c0-5.844-4.685-10.583-10.464-10.583C1909.36,859.869,1904.674,864.607,1904.674,870.452z"/>
		<g>
			
				<rect x="1330.049" y="1367.135" transform="matrix(-0.9667 -0.2561 0.2561 -0.9667 2442.1587 3228.6277)" style="fill:#F7CC7F;" width="202.434" height="176.383"/>
			
				<rect x="1458.684" y="1383.884" transform="matrix(-0.9667 -0.2561 0.2561 -0.9667 2562.2104 3277.7603)" style="opacity:0.5;fill:#F47458;" width="71.618" height="176.383"/>
			
				<rect x="1396.627" y="1361.05" transform="matrix(-0.9667 -0.2561 0.2561 -0.9667 2437.7 3062.9634)" style="fill:#EFEFB4;" width="43.242" height="23.478"/>
		</g>
		<g>
			
				<rect x="1207.349" y="1524.251" transform="matrix(-0.9667 -0.2561 0.2561 -0.9667 2238.5718 3566.3899)" style="fill:#ED9B8E;" width="288.228" height="226.42"/>
			
				<rect x="1390.5" y="1548.099" transform="matrix(-0.9667 -0.2561 0.2561 -0.9667 2409.5049 3636.3435)" style="fill:#F47458;" width="101.971" height="226.419"/>
			
				<rect x="1299.399" y="1515.229" transform="matrix(-0.9667 -0.2561 0.2561 -0.9667 2224.158 3350.1902)" style="fill:#EFEFB4;" width="61.568" height="30.137"/>
		</g>
		<g>
			
				<rect x="1148.919" y="1544.079" transform="matrix(-0.9667 -0.2561 0.2561 -0.9667 2045.666 3538.1077)" style="fill:#F7CC7F;" width="208.503" height="183.597"/>
			
				<rect x="1281.411" y="1561.329" transform="matrix(-0.9667 -0.2561 0.2561 -0.9667 2169.2986 3588.7202)" style="opacity:0.5;fill:#F47458;" width="73.765" height="183.597"/>
			
				<rect x="1217.706" y="1537.838" transform="matrix(-0.9667 -0.2561 0.2561 -0.9667 2041.7133 3365.9395)" style="fill:#EFEFB4;" width="44.539" height="24.438"/>
		</g>
		<path style="fill:#F48C7F;" d="M1717.168,1111.879c0,0-21.105-16.148-27.514-16.022s-15.539,0.944-17.812,2.487
			c-2.083,1.414-15.225,26.743-11.539,30.346c2.241,2.19,13.26-18.5,13.26-18.5s-12.632,21.343-6.765,22.717
			c3.256,0.762,14.361-20.688,14.361-20.688s-9.614,17.76-8.454,18.411c3.152,1.77,9.178-3.688,15.144-10.001
			c3.676-3.891,18.794-1.869,18.794-1.869L1717.168,1111.879z"/>
		<polygon style="fill:#466EB6;" points="1130.447,1696.686 1125.066,1721.424 1464.887,1810.804 1470.665,1784.819 		"/>
		<path style="fill:#466EB6;" d="M1454.743,1822.757l-19.382-5.028l148.423-538.03l223.34-123.87
			c4.835-2.682,10.928-0.936,13.61,3.9c2.681,4.834,0.936,10.927-3.899,13.608l-215.987,119.791L1454.743,1822.757z"/>
		<g>
			<path style="fill:#1A1A1A;" d="M1523.499,1753.745c0,39.773-32.233,72.017-71.994,72.017s-71.993-32.243-71.993-72.017
				s32.232-72.018,71.993-72.018S1523.499,1713.972,1523.499,1753.745z"/>
			<path style="fill:#9E9DA2;" d="M1501.529,1751.119c1.517,29.74-22.904,54.175-52.633,52.666
				c-25.449-1.291-46.119-21.972-47.415-47.42c-1.513-29.738,22.904-54.168,52.629-52.662
				C1479.559,1704.992,1500.23,1725.671,1501.529,1751.119z"/>
			<path style="fill:#D8D9DD;" d="M1484.935,1751.56c1.283,20.228-15.385,36.904-35.605,35.627
				c-16.672-1.054-30.196-14.583-31.254-31.255c-1.283-20.229,15.387-36.908,35.608-35.629
				C1470.355,1721.357,1483.877,1734.888,1484.935,1751.56z"/>
		</g>
		<path style="fill:#FFFFFF;" d="M1955.121,920.324l-27.939-2.224c0,0-0.182,10.837,12.077,12.176
			C1954.206,931.909,1955.121,920.324,1955.121,920.324z"/>
	</g>
</g>
</svg>
